<svg width="40" height="40" viewBox="0 0 40 40" xmlns="http://www.w3.org/2000/svg"><path d="M11.09 34.763a17.14 17.14 0 0 0 4.772 1.98V40h8.276v-3.258a17.14 17.14 0 0 0 4.773-1.98l2.31 2.306 5.85-5.852-2.3-2.305a17.14 17.14 0 0 0 1.98-4.77H40v-8.27h-3.258a17.14 17.14 0 0 0-1.98-4.77l2.306-2.3-5.852-5.85-2.306 2.3a17.14 17.14 0 0 0-4.77-1.98V0h-8.275v3.258a17.14 17.14 0 0 0-4.773 1.98L8.784 2.93l-5.85 5.854 2.304 2.305a17.14 17.14 0 0 0-1.98 4.77H0v8.27h3.258a17.14 17.14 0 0 0 1.98 4.77L2.93 31.21l5.852 5.85 2.305-2.305zM20 29.655a9.655 9.655 0 1 0 0-19.31 9.655 9.655 0 0 0 0 19.31z" fill="#fff" fill-rule="evenodd"/></svg>