<svg width="40" height="40" viewBox="0 0 40 40" xmlns="http://www.w3.org/2000/svg"><path d="M11.09 34.763a17.14 17.14 0 0 0 4.772 1.98V40h8.276v-3.258a17.14 17.14 0 0 0 4.773-1.98l2.31 2.306 5.85-5.852-2.304-2.305a17.14 17.14 0 0 0 1.98-4.77H40v-8.274h-3.258a17.14 17.14 0 0 0-1.98-4.773l2.306-2.305-5.852-5.852L28.91 5.24a17.14 17.14 0 0 0-4.77-1.98V0h-8.275v3.258a17.14 17.14 0 0 0-4.773 1.98L8.784 2.93l-5.85 5.854 2.304 2.305a17.14 17.14 0 0 0-1.98 4.77H0v8.274h3.258a17.14 17.14 0 0 0 1.98 4.773l-2.308 2.31 5.852 5.85 2.305-2.306zM20 29.655a9.655 9.655 0 1 0 0-19.31 9.655 9.655 0 0 0 0 19.31z" fill="#fff" fill-rule="evenodd"/></svg>